<svg width="1206" height="667" xmlns="http://www.w3.org/2000/svg" xmlns:xlink="http://www.w3.org/1999/xlink" xml:space="preserve" overflow="hidden"><defs><filter id="fx0" x="-10%" y="-10%" width="120%" height="120%" filterUnits="userSpaceOnUse" primitiveUnits="userSpaceOnUse"><feComponentTransfer color-interpolation-filters="sRGB"><feFuncR type="discrete" tableValues="0 0"/><feFuncG type="discrete" tableValues="0 0"/><feFuncB type="discrete" tableValues="0 0"/><feFuncA type="linear" slope="0.431373" intercept="0"/></feComponentTransfer><feGaussianBlur stdDeviation="3.72524 3.72524"/></filter><filter id="fx1" x="-10%" y="-10%" width="120%" height="120%" filterUnits="userSpaceOnUse" primitiveUnits="userSpaceOnUse"><feComponentTransfer color-interpolation-filters="sRGB"><feFuncR type="discrete" tableValues="0 0"/><feFuncG type="discrete" tableValues="0 0"/><feFuncB type="discrete" tableValues="0 0"/><feFuncA type="linear" slope="0.431373" intercept="0"/></feComponentTransfer><feGaussianBlur stdDeviation="3.72524 3.72524"/></filter><clipPath id="clip2"><rect x="1605" y="905" width="1206" height="667"/></clipPath><radialGradient cx="1518459" cy="914400" r="1772525" fx="1518458" fy="914400" gradientUnits="userSpaceOnUse" spreadMethod="pad" id="fill3" gradientTransform="matrix(0.000360892 0 0 0.000360892 1652.5 908.5)"><stop offset="0" stop-color="#00B0F0"/><stop offset="0.5" stop-color="#46B1E1"/><stop offset="0.734" stop-color="#83CBEB"/><stop offset="1" stop-color="#163E64"/></radialGradient><clipPath id="clip4"><rect x="172" y="135" width="923" height="214"/></clipPath></defs><g clip-path="url(#clip2)" transform="translate(-1605 -905)"><path d="M1652.5 1018.5C1652.5 957.75 1701.75 908.5 1762.5 908.5L2638.5 908.5C2699.25 908.5 2748.5 957.75 2748.5 1018.5L2748.5 1458.5C2748.5 1519.25 2699.25 1568.5 2638.5 1568.5L1762.5 1568.5C1701.75 1568.5 1652.5 1519.25 1652.5 1458.5Z" stroke="#042433" stroke-width="6.875" stroke-miterlimit="8" fill="url(#fill3)" fill-rule="evenodd"/><g clip-path="url(#clip4)" filter="url(#fx0)" transform="translate(1604 1010)"><g><path d="M172.381-53.2812C168.732-42.5443 162.688-32.8971 154.25-24.3398 145.812-15.7826 135.441-9.08203 123.139-4.23828 110.837 0.605469 97.3795 3.02734 82.7676 3.02734 65.2493 3.02734 51.924-0.282552 42.7915-6.90234 36.337-11.6654 31.9382-18.0228 29.5951-25.9746 27.2521-33.9264 27.3565-41.6562 29.9083-49.1641 31.3891-53.5234 34.1715-57.2572 38.2552-60.3652 42.339-63.4733 46.722-65.0273 51.4043-65.0273 55.1986-65.0273 57.996-63.8164 59.7967-61.3945 61.5973-58.9727 62.6168-55.3802 62.8552-50.6172 63.1945-44.9661 64.0315-40.2435 65.366-36.4492 66.7006-32.6549 69.3309-29.5267 73.257-27.0645 77.1831-24.6022 83.0211-23.3711 90.7711-23.3711 101.427-23.3711 110.929-25.8535 119.276-30.8184 127.624-35.7832 133.059-41.9792 135.583-49.4062 137.586-55.2995 137.416-60.0827 135.072-63.7559 132.727-67.429 129.039-70.2344 124.006-72.1719 118.973-74.1094 112.063-76.168 103.278-78.3476 91.538-81.3346 82.0483-84.8262 74.8085-88.8223 67.5687-92.8184 62.5992-98.2676 59.8998-105.17 57.2004-112.072 57.5927-120.65 61.0767-130.902 64.3966-140.671 70.0102-149.349 77.9172-156.937 85.8242-164.526 95.5158-170.359 106.992-174.436 118.468-178.512 131.028-180.551 144.671-180.551 155.57-180.551 164.535-179.199 171.568-176.494 178.601-173.79 183.98-170.197 187.705-165.717 191.43-161.236 193.666-156.534 194.414-151.609 195.162-146.685 194.741-141.882 193.15-137.199 191.696-132.921 188.872-129.066 184.678-125.635 180.485-122.204 176.128-120.488 171.607-120.488 167.49-120.488 164.711-121.518 163.272-123.576 161.833-125.635 160.657-129.005 159.745-133.687 158.793-140.388 156.694-145.615 153.449-149.369 150.204-153.123 143.577-155 133.566-155 124.283-155 116.102-152.962 109.025-148.885 101.948-144.808 97.4357-139.904 95.4881-134.172 94.2809-130.62 94.2071-127.552 95.2667-124.969 96.3263-122.385 98.236-120.165 100.996-118.309 103.756-116.452 106.693-114.999 109.807-113.949 112.922-112.9 118.132-111.366 125.438-109.348 134.654-107.007 142.838-104.423 149.991-101.598 157.143-98.7721 162.88-95.3411 167.199-91.3047 171.519-87.2682 174.224-82.1621 175.313-75.9863 176.403-69.8105 175.426-62.2422 172.381-53.2812ZM349.904-147.855 310.67-147.855 266.842-18.8906C264.318-11.4635 260.79-5.95378 256.259-2.36133 251.728 1.23112 246.839 3.02734 241.592 3.02734 236.264 3.02734 232.542 1.21094 230.427-2.42187 228.311-6.05469 228.502-11.5443 230.998-18.8906L274.826-147.855 235.592-147.855C229.457-147.855 225.355-149.208 223.287-151.912 221.219-154.617 220.939-158.189 222.448-162.629 224.012-167.23 226.801-170.863 230.814-173.527 234.828-176.191 239.782-177.523 245.675-177.523L359.987-177.523C366.204-177.523 370.359-176.151 372.453-173.406 374.548-170.661 374.84-167.069 373.33-162.629 371.822-158.189 369.074-154.617 365.088-151.912 361.101-149.208 356.04-147.855 349.904-147.855ZM443.897-20.1016 442.993-42.3828 370.821-42.3828 354.608-19.6172C348.279-10.737 343.416-4.74284 340.019-1.63477 336.621 1.47331 332.258 3.02734 326.93 3.02734 322.409 3.02734 318.976 1.3724 316.63-1.9375 314.284-5.2474 313.824-9.0013 315.25-13.1992 316.073-15.6211 317.327-18.1237 319.012-20.707 320.697-23.2904 323.25-26.8828 326.671-31.4844L411.259-146.766C413.676-150.076 416.581-154.051 419.975-158.693 423.369-163.335 426.616-167.19 429.717-170.258 432.818-173.326 436.366-175.808 440.361-177.705 444.356-179.602 448.816-180.551 453.74-180.551 458.745-180.551 462.601-179.602 465.306-177.705 468.012-175.808 469.887-173.366 470.931-170.379 471.974-167.392 472.62-164.183 472.866-160.752 473.113-157.321 473.352-152.74 473.584-147.008L481.032-32.4531C481.701-23.7344 481.364-17.3971 480.019-13.4414 478.62-9.32422 475.622-5.55013 471.025-2.11914 466.428 1.31185 461.708 3.02734 456.864 3.02734 454.038 3.02734 451.788 2.52279 450.113 1.51367 448.438 0.504557 447.209-0.867839 446.426-2.60352 445.643-4.33919 445.076-7.00325 444.722-10.5957 444.369-14.1882 444.094-17.3568 443.897-20.1016ZM389.443-69.3867 442.482-69.3867 440.618-142.648ZM575.775-75.9258 563.181-75.9258 543.799-18.8906C541.247-11.3828 537.712-5.85286 533.195-2.30078 528.678 1.2513 523.756 3.02734 518.428 3.02734 512.696 3.02734 508.887 1.17057 507-2.54297 505.114-6.25651 505.392-11.7057 507.834-18.8906L554.254-155.484C556.888-163.234 560.531-168.845 565.182-172.316 569.833-175.788 576.034-177.523 583.784-177.523L642.273-177.523C650.345-177.523 657.131-177.18 662.63-176.494 668.128-175.808 672.821-174.415 676.709-172.316 681.484-169.975 685.271-166.625 688.068-162.266 690.865-157.906 692.392-152.84 692.65-147.068 692.908-141.296 691.94-135.181 689.745-128.723 685.246-115.483 677.918-104.908 667.762-96.9961 657.606-89.0846 644.377-83.4739 628.076-80.1641 633.301-76.7734 637.695-71.7682 641.257-65.1484 644.82-58.5286 647.613-51.485 649.637-44.0176 651.66-36.5501 652.921-29.8092 653.421-23.7949 653.92-17.7806 653.786-13.6432 653.018-11.3828 652.222-9.04167 650.686-6.7207 648.41-4.41992 646.135-2.11914 643.479-0.302734 640.443 1.0293 637.407 2.36133 634.193 3.02734 630.803 3.02734 626.766 3.02734 623.698 2.07878 621.599 0.181641 619.499-1.71549 617.954-4.11719 616.964-7.02344 615.974-9.92969 614.743-14.2083 613.272-19.8594L607.012-43.8359C604.834-52.6354 602.489-59.3359 599.977-63.9375 597.464-68.5391 594.397-71.6875 590.775-73.3828 587.152-75.0781 582.153-75.9258 575.775-75.9258ZM621.711-150.52 588.531-150.52 571.947-101.719 604.158-101.719C612.796-101.719 620.316-102.465 626.717-103.959 633.118-105.452 638.483-107.995 642.812-111.588 647.141-115.18 650.375-120.125 652.514-126.422 654.188-131.346 654.412-135.686 653.185-139.439 651.958-143.193 649.44-145.999 645.631-147.855 642.036-149.631 634.063-150.52 621.711-150.52ZM833.034-147.855 793.799-147.855 749.971-18.8906C747.447-11.4635 743.919-5.95378 739.388-2.36133 734.857 1.23112 729.968 3.02734 724.721 3.02734 719.393 3.02734 715.671 1.21094 713.556-2.42187 711.44-6.05469 711.631-11.5443 714.127-18.8906L757.955-147.855 718.721-147.855C712.586-147.855 708.484-149.208 706.416-151.912 704.348-154.617 704.068-158.189 705.577-162.629 707.141-167.23 709.93-170.863 713.944-173.527 717.957-176.191 722.911-177.523 728.804-177.523L843.117-177.523C849.333-177.523 853.488-176.151 855.583-173.406 857.677-170.661 857.969-167.069 856.46-162.629 854.951-158.189 852.203-154.617 848.217-151.912 844.23-149.208 839.169-147.855 833.034-147.855ZM856.921-76.8945 872.76-134.898C875.874-146.201 878.267-154.314 879.94-159.238 882.218-165.939 885.751-171.166 890.538-174.92 895.325-178.674 900.584-180.551 906.316-180.551 913.258-180.551 917.084-178.149 917.793-173.346 918.502-168.542 917.32-161.62 914.247-152.578 912.437-147.25 910.317-141.841 907.886-136.352L882.39-76.6523C879.411-69.5482 876.348-64.099 873.201-60.3047 870.055-56.5104 866.342-54.6133 862.064-54.6133 857.704-54.6133 855.301-56.4499 854.855-60.123 854.408-63.7962 855.097-69.3867 856.921-76.8945ZM843.285 2.78516C838.36 2.78516 834.603 1.19075 832.013-1.99805 829.424-5.18685 829.103-9.64713 831.05-15.3789 832.752-20.3841 835.955-24.6426 840.66-28.1543 845.365-31.666 850.261-33.4219 855.347-33.4219 860.433-33.4219 864.175-31.666 866.574-28.1543 868.974-24.6426 869.322-20.3841 867.621-15.3789 865.701-9.72786 862.376-5.28776 857.646-2.05859 852.915 1.17057 848.128 2.78516 843.285 2.78516Z" fill="#FFFFFF" transform="matrix(1 0 0 1 161.244 330)"/></g></g><text fill="#FFFFFF" font-family="Arial Rounded MT Bold,Arial Rounded MT Bold_MSFontService,sans-serif" font-style="oblique" font-weight="700" font-size="248" text-decoration="underline" transform="matrix(1 0 0 1 1757.34 1332)">START!</text><g filter="url(#fx1)" transform="translate(1752 1352)"><g><path d="M12.9333 12.9023 234.433 12.9023 455.933 12.9023 677.433 12.9023 898.933 12.9023 898.933 24.9023 677.433 24.9023 455.933 24.9023 234.433 24.9023 12.9333 24.9023Z" fill="#FFFFFF" fill-rule="evenodd"/></g></g></g></svg>